<?xml version="1.0" standalone="no"?>
<!DOCTYPE svg PUBLIC "-//W3C//DTD SVG 20010904//EN"
 "http://www.w3.org/TR/2001/REC-SVG-20010904/DTD/svg10.dtd">
<svg version="1.0" xmlns="http://www.w3.org/2000/svg"
 width="1024.000000pt" height="1024.000000pt" viewBox="0 0 1024.000000 1024.000000"
 preserveAspectRatio="xMidYMid meet">

<g transform="translate(0.000000,1024.000000) scale(0.100000,-0.100000)"
fill="#000000" stroke="none">
<path d="M0 5120 l0 -5120 5120 0 5120 0 0 5120 0 5120 -5120 0 -5120 0 0
-5120z m5460 3195 c127 -18 289 -49 410 -80 566 -142 1178 -512 1544 -934 429
-495 666 -1047 724 -1691 11 -123 7 -478 -7 -580 -19 -149 -59 -369 -81 -451
-34 -123 -104 -321 -116 -326 -7 -2 -53 19 -103 47 -50 28 -125 67 -166 86
-41 19 -75 36 -75 38 0 1 11 34 24 72 57 169 118 490 137 723 29 352 -53 792
-216 1166 -191 440 -559 869 -985 1152 -387 255 -882 414 -1345 429 -154 5
-373 -5 -450 -20 -16 -4 -68 -13 -115 -22 -377 -68 -810 -256 -1100 -478 -174
-133 -360 -308 -484 -455 -58 -69 -191 -256 -245 -344 -178 -292 -281 -623
-337 -1087 -35 -285 12 -703 117 -1043 17 -55 29 -100 27 -100 -109 -53 -236
-118 -279 -144 -31 -18 -59 -33 -62 -33 -10 0 -96 276 -127 405 -64 269 -75
372 -75 705 1 324 5 374 61 642 66 318 222 691 403 963 372 560 910 970 1588
1211 206 73 426 122 703 157 49 7 575 0 630 -8z m-250 -505 c157 -11 301 -30
296 -39 -2 -3 17 -7 42 -8 56 -3 225 -47 216 -55 -3 -4 3 -4 14 -1 11 2 48 -7
83 -20 35 -14 87 -33 116 -43 34 -12 48 -21 40 -27 -7 -5 -4 -6 9 -2 29 8 150
-45 132 -57 -10 -7 -8 -8 4 -4 18 5 45 -4 107 -38 26 -14 31 -20 20 -27 -10
-7 -6 -8 11 -4 19 4 40 -5 85 -35 33 -23 75 -50 93 -62 18 -11 31 -23 28 -26
-3 -3 -14 1 -23 9 -16 12 -17 12 -6 -2 7 -9 9 -19 5 -24 -4 -4 3 -2 16 4 18
10 27 10 38 1 7 -7 11 -17 7 -23 -3 -6 -1 -7 5 -3 7 4 28 -5 47 -20 26 -20 32
-29 23 -35 -9 -6 -5 -11 12 -17 14 -5 29 -7 33 -5 12 7 67 -48 60 -60 -3 -6
-2 -7 4 -4 6 4 21 -5 34 -20 13 -14 17 -23 9 -19 -8 4 -6 0 4 -8 11 -9 25 -16
31 -16 7 0 36 -28 66 -62 29 -35 58 -66 63 -69 4 -4 5 -13 1 -20 -6 -9 -3 -11
8 -6 10 3 17 2 17 -4 0 -5 16 -24 35 -41 20 -17 34 -33 31 -35 -3 -3 4 -14 14
-26 11 -11 17 -25 13 -30 -3 -6 -1 -7 5 -3 6 3 26 -14 46 -40 36 -47 46 -72
24 -58 -7 4 -8 3 -4 -5 4 -6 12 -9 17 -6 5 4 9 -1 9 -10 0 -8 7 -18 15 -21 10
-4 12 -11 5 -23 -6 -13 -5 -18 5 -18 8 0 12 4 9 9 -3 4 -3 8 0 8 12 0 57 -90
50 -101 -4 -7 -3 -9 3 -6 6 4 25 -20 43 -56 63 -119 110 -216 130 -266 l20
-51 -88 59 c-252 169 -354 237 -370 246 -10 6 -64 39 -120 75 -57 36 -112 70
-123 76 -11 6 -23 15 -27 19 -4 5 -1 5 7 0 9 -5 12 -4 7 3 -4 6 -12 9 -19 7
-7 -3 -25 6 -42 21 l-30 25 30 -17 30 -16 -25 20 c-13 11 -28 18 -32 15 -5 -2
-38 14 -73 36 -35 23 -70 41 -76 41 -6 0 -25 -11 -41 -25 -16 -14 -34 -23 -39
-19 -5 3 -9 -1 -9 -8 0 -15 -77 -72 -100 -74 -33 -4 -35 -5 -22 -12 9 -6 -17
-30 -83 -78 -52 -38 -138 -102 -191 -141 -53 -40 -112 -83 -132 -95 -21 -12
-64 -43 -97 -68 -33 -25 -74 -55 -90 -67 l-30 -21 1 147 c1 80 -1 151 -6 156
-4 6 -11 26 -15 45 -16 76 -126 274 -205 368 -6 6 -7 12 -3 12 4 0 0 5 -10 11
-9 6 -15 15 -11 20 3 5 2 8 -3 7 -4 -2 -9 1 -10 5 0 5 -12 21 -25 35 -43 48
-137 212 -122 212 4 0 1 8 -7 18 -26 30 -62 120 -55 137 3 9 2 13 -3 10 -12
-7 -24 31 -15 46 5 8 3 9 -5 5 -8 -5 -11 -3 -10 5 4 24 -33 87 -58 98 -34 16
-57 14 -83 -7 -19 -15 -23 -31 -30 -137 -4 -66 -13 -132 -19 -147 -6 -16 -9
-28 -6 -28 9 0 -36 -115 -80 -202 -53 -105 -122 -201 -138 -191 -6 4 -7 1 -2
-6 4 -8 -2 -26 -16 -44 -13 -18 -44 -74 -70 -125 -25 -50 -49 -89 -53 -85 -4
4 -4 0 -1 -9 4 -9 0 -41 -8 -70 -8 -30 -14 -90 -13 -140 1 -88 -8 -109 -36
-91 -7 4 -8 1 -4 -6 5 -7 14 -10 21 -7 13 5 30 -22 20 -32 -3 -3 -5 0 -5 6 0
7 -4 11 -8 9 -16 -4 -112 68 -109 82 1 8 -4 16 -12 19 -9 3 -11 0 -6 -8 6 -9
4 -11 -6 -5 -38 22 -79 57 -74 65 7 11 -20 31 -36 26 -18 -7 -155 88 -151 104
1 6 -2 9 -8 5 -8 -5 -98 51 -120 75 -3 3 -39 27 -80 55 -41 27 -108 73 -149
102 -41 29 -84 53 -97 53 -12 0 -44 -17 -71 -37 -26 -20 -84 -60 -128 -87 -44
-28 -110 -72 -146 -98 -37 -27 -71 -48 -77 -48 -6 0 -17 -6 -24 -13 -7 -7 -44
-32 -83 -56 -38 -24 -72 -47 -75 -51 -3 -4 -21 -16 -40 -26 -19 -11 -70 -42
-112 -71 -85 -57 -138 -87 -144 -80 -8 8 8 37 17 31 5 -3 6 1 3 9 -6 18 60
159 71 150 4 -5 5 -3 1 4 -11 19 24 82 43 76 13 -4 13 -3 2 5 -12 8 -9 18 13
56 16 27 32 44 38 40 7 -4 8 -2 4 4 -11 18 23 62 42 55 14 -4 15 -3 2 6 -12 8
-3 27 55 112 80 117 163 211 178 202 6 -3 7 -1 3 6 -10 15 60 85 75 75 8 -4 9
-3 5 5 -9 14 59 85 74 76 5 -3 8 0 6 7 -6 16 140 142 154 133 6 -4 9 -1 8 6
-2 6 17 27 42 45 25 18 53 40 62 48 35 31 200 126 209 121 5 -4 9 -3 9 2 0 9
62 53 74 53 4 0 4 -6 0 -12 -4 -7 -4 -10 0 -6 4 3 7 10 6 14 -2 11 133 75 148
69 7 -2 11 -1 8 3 -3 5 18 17 47 27 29 10 57 21 62 25 11 8 156 53 220 69 22
5 65 16 95 24 80 22 143 30 135 17 -3 -5 -2 -10 3 -10 6 0 12 6 15 14 5 13
133 33 257 39 30 2 60 4 65 5 6 1 75 -3 155 -8z m-75 -825 c35 -80 76 -152
184 -325 92 -148 122 -225 128 -333 7 -109 -13 -193 -67 -275 -44 -67 -78 -99
-142 -137 -54 -31 -58 -27 -24 18 69 90 85 205 45 313 -23 60 -136 236 -156
242 -17 5 -126 -164 -153 -236 -41 -109 -20 -222 61 -324 36 -45 30 -47 -36
-9 -140 80 -225 245 -212 411 7 90 35 158 123 295 112 174 173 303 199 419 8
36 10 33 50 -59z m-1350 -478 c90 -73 269 -212 464 -362 57 -44 113 -87 124
-96 21 -16 20 -17 -33 -44 -30 -15 -71 -39 -92 -52 l-37 -25 -48 45 c-89 84
-228 197 -238 194 -5 -2 -11 -19 -12 -38 -2 -19 -8 -63 -13 -99 -11 -65 -17
-114 -19 -158 -1 -32 -15 -21 -54 46 -19 31 -78 128 -131 215 -53 87 -96 162
-96 167 0 27 -35 13 -173 -68 -84 -50 -219 -128 -302 -174 -82 -47 -166 -94
-185 -106 -19 -12 -38 -22 -43 -22 -14 0 214 193 536 454 21 17 54 44 73 60
80 67 170 135 179 136 6 0 51 -33 100 -73z m2721 6 c28 -67 210 -801 201 -810
-2 -1 -92 67 -228 172 -35 27 -130 102 -210 167 -80 65 -151 118 -156 118 -6
0 -60 -33 -120 -73 -94 -63 -113 -72 -127 -61 -16 11 -14 15 20 41 20 15 50
41 68 56 73 66 519 426 528 427 4 0 15 -17 24 -37z m-1816 -613 c-13 -8 -12
-11 5 -24 20 -15 20 -16 -4 -13 -13 1 -28 -5 -34 -15 -14 -21 -10 -25 28 -33
l30 -7 -25 21 c-14 11 -20 21 -13 21 6 0 15 -4 18 -10 3 -5 11 -10 17 -10 6 0
8 3 5 7 -4 3 -2 12 4 19 7 8 7 14 -1 19 -5 3 -10 12 -10 18 0 7 7 4 14 -6 28
-36 -9 -100 -53 -92 -20 4 -22 3 -7 -3 17 -8 15 -12 -24 -43 -24 -19 -56 -54
-73 -79 -20 -31 -27 -37 -22 -20 6 24 5 24 -10 6 -8 -11 -13 -27 -11 -35 3 -9
1 -34 -4 -56 l-9 -40 3 47 c3 41 2 45 -11 32 -12 -11 -18 -12 -29 -3 -13 10
-12 14 1 29 9 9 13 24 10 32 -4 9 0 15 10 15 18 0 18 -2 4 -29 -6 -11 -8 -22
-6 -25 3 -3 13 9 22 27 10 20 22 30 31 26 13 -5 18 5 15 31 -1 8 5 10 14 7 8
-3 15 -1 15 5 0 6 -4 11 -9 11 -5 0 -11 7 -14 14 -4 10 -1 13 9 9 7 -3 14 -9
14 -14 0 -5 5 -9 10 -9 6 0 10 6 10 14 0 8 8 13 18 12 25 -2 26 60 1 85 -19
19 -19 19 11 25 16 4 30 10 30 15 0 14 -34 10 -58 -7 -12 -8 -22 -12 -22 -7 0
4 18 18 40 30 22 12 40 17 40 12 0 -6 5 -7 10 -4 6 4 7 12 4 18 -4 8 -2 7 7
-1 12 -11 12 -14 -1 -22z m830 6 c0 -3 -4 -8 -10 -11 -5 -3 -10 -1 -10 4 0 6
5 11 10 11 6 0 10 -2 10 -4z m4 -42 c3 -8 2 -12 -4 -9 -6 3 -10 10 -10 16 0
14 7 11 14 -7z m131 -4 c-3 -5 -1 -10 6 -10 7 0 10 -2 7 -5 -3 -3 -13 -2 -22
1 -14 5 -15 9 -4 15 17 11 20 11 13 -1z m-886 -14 c9 -10 8 -15 -2 -19 -8 -3
-13 3 -14 14 -2 23 1 24 16 5z m698 -1 c0 -8 -4 -15 -9 -15 -4 0 -8 7 -8 15 0
8 4 15 8 15 5 0 9 -7 9 -15z m45 -34 c-1 -6 8 -15 21 -20 12 -5 29 -16 36 -25
7 -9 18 -13 25 -9 6 3 8 3 4 -2 -4 -4 -2 -15 5 -24 7 -9 2 -8 -15 4 -15 11
-28 23 -28 27 0 4 -17 15 -37 24 -20 10 -31 20 -24 22 11 4 10 6 0 14 -11 8
-11 9 1 5 8 -2 14 -10 12 -16z m262 -16 c11 -8 16 -15 10 -15 -5 0 -18 7 -28
15 -11 8 -16 15 -10 15 5 0 18 -7 28 -15z m-1384 -40 c-7 -9 -15 -13 -19 -10
-3 3 1 10 9 15 21 14 24 12 10 -5z m1280 -37 c0 -15 -15 -8 -28 12 -12 19 -11
20 8 8 11 -7 20 -16 20 -20z m-1310 17 c0 -3 -12 -11 -27 -17 l-28 -11 25 -7
25 -6 -28 -7 c-15 -4 -34 -4 -43 1 -11 6 -4 13 28 30 48 24 48 24 48 17z
m1520 -5 c8 -5 11 -10 5 -10 -5 0 -17 5 -25 10 -8 5 -10 10 -5 10 6 0 17 -5
25 -10z m-1490 -19 c0 -5 9 -7 20 -4 15 4 20 0 20 -15 0 -26 -18 -39 -62 -44
-31 -3 -38 -1 -38 14 0 10 3 18 8 18 4 0 18 3 31 7 18 5 22 3 16 -7 -5 -8 -3
-11 5 -8 15 5 27 30 13 27 -4 -1 -16 -1 -25 0 -22 1 -24 21 -3 21 8 0 15 -4
15 -9z m1260 -35 c0 -5 -7 -1 -15 10 -8 10 -14 24 -14 29 0 6 6 1 14 -9 8 -11
15 -24 15 -30z m-1407 -10 c-3 -15 -10 -23 -18 -20 -11 4 -10 10 3 25 21 24
20 24 15 -5z m1428 -7 c-5 -13 -10 -19 -10 -12 -1 15 10 45 15 40 3 -2 0 -15
-5 -28z m-621 -59 c0 -62 2 -71 24 -85 29 -19 72 -11 86 15 6 10 10 46 10 80
l0 61 48 -6 c79 -11 175 -43 212 -70 68 -50 80 -84 80 -229 0 -119 -2 -132
-22 -153 -28 -30 -48 -29 -92 6 -23 19 -43 27 -56 24 -31 -8 -60 -52 -60 -89
0 -42 -14 -43 -50 -4 -34 36 -80 40 -110 10 -18 -18 -20 -33 -20 -150 0 -135
10 -180 45 -193 13 -6 15 -49 15 -338 l0 -332 -122 6 c-131 7 -177 16 -245 50
-30 14 -46 30 -53 51 -6 20 -9 252 -7 653 2 612 2 622 23 650 28 38 109 80
185 97 113 25 109 27 109 -54z m-836 35 c11 -8 15 -15 9 -15 -19 0 -43 12 -43
21 0 13 12 11 34 -6z m1800 -7 c-5 -8 -2 -9 10 -5 10 4 27 1 39 -5 12 -7 24
-13 27 -13 24 -5 58 -30 53 -38 -4 -6 0 -8 9 -5 8 4 21 2 29 -4 11 -8 10 -9
-4 -4 -11 3 -16 2 -12 -4 3 -6 15 -10 26 -10 26 0 165 -73 149 -78 -9 -3 -10
-6 0 -12 9 -5 8 -9 -3 -13 -10 -4 -14 0 -12 11 1 10 -10 24 -29 34 -38 21 -43
21 -49 4 -4 -10 0 -12 14 -9 26 7 24 -11 -3 -26 -21 -10 -21 -11 -2 -6 20 5
20 3 13 -52 -4 -32 -13 -59 -18 -61 -6 -2 -11 -11 -12 -20 -1 -10 -4 -6 -8 8
-4 16 -14 25 -26 25 -11 0 -26 4 -33 8 -8 5 -19 3 -29 -5 -15 -12 -16 -9 -10
25 3 22 2 35 -4 32 -5 -4 -9 3 -9 14 0 17 -6 21 -31 21 -19 0 -28 -4 -24 -11
12 -18 -4 -59 -20 -53 -17 7 -21 64 -5 64 6 0 10 33 10 80 0 57 4 80 13 80 6
0 4 5 -7 11 -14 9 -21 8 -27 -2 -8 -12 -11 -12 -18 1 -9 13 -6 30 5 30 3 0 2
-5 -2 -12z m-1825 -9 c23 -8 35 -8 45 0 10 8 16 9 21 1 10 -17 -24 -24 -62
-12 -36 11 -67 6 -57 -9 6 -11 -9 -12 -20 -2 -5 5 20 26 40 33 1 0 15 -5 33
-11z m-100 -60 c-13 -10 -28 -19 -34 -18 -5 0 -2 4 8 10 9 5 17 15 17 21 0 6
-7 5 -17 -3 -16 -13 -17 -12 -5 2 8 11 21 15 34 11 20 -5 20 -5 -3 -23z m408
-26 c-3 -10 -5 -2 -5 17 0 19 2 27 5 18 2 -10 2 -26 0 -35z m-337 27 c0 -5 -4
-10 -9 -10 -5 0 -18 -3 -28 -6 -16 -6 -16 -5 2 9 23 19 35 21 35 7z m1577 -12
c-3 -8 -6 -5 -6 6 -1 11 2 17 5 13 3 -3 4 -12 1 -19z m-37 -35 c-11 -17 -11
-17 -6 0 3 10 6 24 7 30 0 9 2 9 5 0 3 -7 0 -20 -6 -30z m-1705 17 c-3 -5 -12
-10 -18 -10 -7 0 -6 4 3 10 19 12 23 12 15 0z m93 -10 c19 0 22 -5 22 -40 0
-43 0 -43 -67 -40 -26 1 -43 -3 -46 -12 -2 -7 -3 -5 -2 5 4 22 -4 22 -21 0 -7
-10 -16 -14 -21 -10 -4 5 4 18 20 29 16 12 27 29 27 43 0 26 15 36 45 30 11
-3 30 -5 43 -5z m429 -62 c-2 -13 -4 -3 -4 22 0 25 2 35 4 23 2 -13 2 -33 0
-45z m1220 30 c-3 -7 -5 -2 -5 12 0 14 2 19 5 13 2 -7 2 -19 0 -25z m-1782 13
c-6 -5 -21 -12 -35 -15 l-25 -7 25 15 c28 17 50 21 35 7z m35 -11 c0 -5 -5
-10 -11 -10 -5 0 -7 5 -4 10 3 6 8 10 11 10 2 0 4 -4 4 -10z m-30 -20 c0 -5
-7 -10 -16 -10 -8 0 -12 5 -9 10 3 6 10 10 16 10 5 0 9 -4 9 -10z m-84 -9 c-3
-5 -16 -11 -28 -14 -22 -6 -22 -5 -4 8 22 17 40 20 32 6z m276 -30 c8 12 9 12
6 0 -6 -22 -28 -25 -27 -4 0 12 2 14 6 4 5 -11 7 -11 15 0z m1545 -173 c-2
-35 -3 -7 -3 62 0 69 1 97 3 63 2 -35 2 -91 0 -125z m-1820 140 c-3 -8 -6 -5
-6 6 -1 11 2 17 5 13 3 -3 4 -12 1 -19z m2493 12 c0 -5 -4 -10 -10 -10 -5 0
-10 5 -10 10 0 6 5 10 10 10 6 0 10 -4 10 -10z m60 6 c0 -2 -7 -7 -16 -10 -8
-3 -12 -2 -9 4 6 10 25 14 25 6z m-2520 -21 c0 -8 -2 -15 -4 -15 -2 0 -6 7
-10 15 -3 8 -1 15 4 15 6 0 10 -7 10 -15z m2534 0 c-4 -8 -11 -15 -16 -15 -6
0 -5 6 2 15 7 8 14 15 16 15 2 0 1 -7 -2 -15z m-2287 -42 c-3 -10 -5 -2 -5 17
0 19 2 27 5 18 2 -10 2 -26 0 -35z m-427 22 c-14 -8 -29 -14 -35 -14 -5 0 1 6
15 14 14 8 30 14 35 14 6 0 -1 -6 -15 -14z m197 -7 c-3 -8 -6 -5 -6 6 -1 11 2
17 5 13 3 -3 4 -12 1 -19z m-112 2 c-3 -5 -14 -10 -23 -9 -14 0 -13 2 3 9 27
11 27 11 20 0z m159 -3 c7 -7 16 -41 20 -75 4 -35 10 -70 13 -78 3 -8 -1 -14
-10 -14 -8 0 -20 -13 -27 -30 -7 -16 -16 -30 -21 -30 -13 0 -11 14 3 28 6 6 8
15 4 19 -4 5 -14 -1 -23 -12 -15 -20 -15 -20 -11 0 2 12 13 21 27 23 23 4 23
5 16 80 -4 43 -11 79 -16 80 -5 2 -7 8 -3 13 7 12 13 11 28 -4z m2051 -41 c-2
-24 -8 -52 -14 -62 -8 -15 -9 -10 -5 25 4 31 2 46 -7 52 -12 8 -11 11 1 19 25
16 28 12 25 -34z m-2005 24 c0 -5 -2 -10 -4 -10 -3 0 -8 5 -11 10 -3 6 -1 10
4 10 6 0 11 -4 11 -10z m47 -27 c-6 -18 -14 -33 -19 -33 -5 0 -6 -5 -2 -11 4
-7 1 -10 -7 -7 -8 3 -16 13 -17 23 -3 10 0 15 7 11 6 -4 11 0 11 9 0 9 5 13
11 9 7 -4 9 0 5 13 -4 13 -2 20 7 20 11 0 12 -7 4 -34z m108 -3 c3 -5 1 -10
-4 -10 -6 0 -11 5 -11 10 0 6 2 10 4 10 3 0 8 -4 11 -10z m2165 -27 c0 -7 -4
-13 -10 -13 -5 0 -10 12 -10 28 0 21 2 24 10 12 5 -8 10 -21 10 -27z m-150 12
c6 -8 8 -19 4 -26 -5 -8 -9 -7 -16 5 -5 9 -13 14 -18 11 -4 -3 -10 2 -14 10
-7 20 27 20 44 0z m-2171 -40 c0 -5 -4 -3 -9 5 -5 8 -9 22 -9 30 0 16 17 -16
18 -35z m-359 31 c0 -2 -9 -6 -20 -9 -11 -3 -18 -1 -14 4 5 9 34 13 34 5z
m540 -11 c11 -13 10 -14 -4 -9 -14 5 -14 3 -3 -22 23 -53 50 -99 61 -106 6 -4
11 -13 11 -20 0 -8 12 -13 28 -12 26 0 33 -6 20 -19 -3 -4 -12 -2 -20 4 -8 7
-13 8 -13 1 0 -14 25 -33 33 -25 4 3 7 1 7 -5 0 -19 -15 -14 -42 16 -34 36
-108 180 -101 198 6 17 8 17 23 -1z m2252 4 c16 -8 18 -13 8 -19 -8 -5 -19 -3
-27 5 -25 25 -15 32 19 14z m-2637 -19 c-3 -5 -14 -10 -23 -10 -15 0 -15 2 -2
10 20 13 33 13 25 0z m484 6 c-12 -10 -59 -15 -59 -6 0 5 14 10 32 10 17 0 29
-2 27 -4z m1986 -5 c-3 -6 4 -19 16 -30 22 -20 19 -41 -6 -41 -8 0 -11 7 -8
20 8 31 -40 26 -72 -7 l-26 -28 12 28 c7 15 23 30 36 33 13 4 23 12 23 20 0 8
7 14 16 14 8 0 13 -4 9 -9z m115 -27 c0 -22 -76 -19 -82 4 -4 15 1 17 39 13
28 -2 43 -8 43 -17z m-2375 -16 c-1 -30 -21 -65 -32 -55 -4 5 0 13 10 18 12 7
15 17 11 35 -3 13 -2 24 3 24 5 0 9 -10 8 -22z m2468 15 c-22 -8 -14 -33 10
-34 12 0 16 -3 9 -6 -15 -6 -62 16 -62 28 0 4 8 10 18 12 23 6 40 7 25 0z
m-2693 -13 c0 -5 -4 -10 -10 -10 -5 0 -10 5 -10 10 0 6 5 10 10 10 6 0 10 -4
10 -10z m509 -30 c6 0 11 -7 11 -15 0 -21 -11 -18 -39 10 -13 14 -27 25 -32
25 -5 0 -9 5 -9 11 0 6 13 1 29 -10 16 -12 34 -21 40 -21z m178 18 c-3 -8 -6
-5 -6 6 -1 11 2 17 5 13 3 -3 4 -12 1 -19z m1230 -10 c-3 -7 -5 -2 -5 12 0 14
2 19 5 13 2 -7 2 -19 0 -25z m533 -2 c0 -3 -4 -8 -10 -11 -5 -3 -10 -1 -10 4
0 6 5 11 10 11 6 0 10 -2 10 -4z m180 -41 c0 -33 -4 -45 -15 -45 -8 0 -15 -4
-15 -10 0 -5 8 -10 17 -10 12 0 14 -3 6 -11 -8 -8 -17 -5 -32 10 -16 16 -17
21 -6 21 11 0 15 12 15 45 0 33 4 45 15 45 11 0 15 -12 15 -45z m290 35 c0 -5
-2 -10 -4 -10 -3 0 -8 5 -11 10 -3 6 -1 10 4 10 6 0 11 -4 11 -10z m57 -5 c0
-17 -13 -20 -21 -6 -4 5 0 12 6 14 7 3 13 6 14 6 0 1 1 -6 1 -14z m-3180 -17
c-3 -8 -6 -5 -6 6 -1 11 2 17 5 13 3 -3 4 -12 1 -19z m99 2 c0 -11 -4 -20 -8
-20 -4 0 -8 9 -8 20 0 11 4 20 8 20 4 0 8 -9 8 -20z m2262 -5 c-3 -3 -9 2 -12
12 -6 14 -5 15 5 6 7 -7 10 -15 7 -18z m35 8 c-3 -7 -6 -13 -8 -13 -2 0 -5 6
-8 13 -3 8 1 14 8 14 7 0 11 -6 8 -14z m711 -4 c6 -5 5 -17 -3 -31 -11 -22
-11 -22 -6 5 3 15 1 27 -5 27 -5 0 -10 -7 -10 -15 0 -8 -4 -15 -9 -15 -5 0
-12 -13 -16 -28 -3 -15 -16 -49 -29 -74 -23 -46 -24 -46 -35 -22 -15 33 -14
39 4 24 20 -17 20 1 0 40 -9 17 -11 30 -6 30 5 0 13 -9 16 -20 14 -44 38 -17
38 44 0 29 2 35 7 21 7 -19 8 -19 15 -1 5 11 3 22 -6 28 -10 6 -7 7 11 3 14
-4 29 -11 34 -16z m-3314 7 c0 -3 -4 -8 -10 -11 -5 -3 -10 -1 -10 4 0 6 5 11
10 11 6 0 10 -2 10 -4z m1141 -13 c12 -15 12 -16 -5 -10 -10 4 -25 2 -34 -5
-14 -12 -14 -11 -1 10 17 26 22 27 40 5z m1410 -36 c-18 -18 -13 -31 6 -16 26
21 -19 -40 -54 -73 -36 -33 -102 -70 -117 -65 -6 3 -11 -6 -11 -19 0 -13 5
-24 12 -24 6 0 15 -5 19 -11 4 -8 -1 -9 -17 -4 -19 5 -21 4 -9 -4 13 -10 13
-11 0 -11 -13 0 -13 -1 0 -10 12 -8 12 -10 1 -10 -8 0 -12 -2 -9 -5 3 -3 13
-2 22 1 14 5 15 9 4 15 -9 6 -4 9 15 9 16 0 26 -4 23 -9 -9 -15 21 -21 55 -11
17 5 35 7 39 5 4 -3 22 2 39 11 18 9 35 13 38 10 4 -3 0 -6 -8 -6 -11 0 -11
-2 1 -10 10 -6 11 -10 3 -10 -7 0 -13 -6 -13 -12 0 -18 -47 -74 -55 -66 -4 4
-7 23 -8 43 -1 26 -5 34 -15 30 -7 -3 -19 -5 -25 -5 -8 0 -7 -3 1 -9 11 -6 7
-13 -13 -29 -27 -22 -29 -52 -3 -52 7 0 3 -7 -10 -15 -19 -14 -25 -14 -53 1
-23 11 -28 18 -19 24 8 5 19 2 27 -6 8 -8 20 -14 26 -14 7 0 3 7 -7 15 -11 8
-16 15 -10 15 14 1 -28 30 -43 30 -17 0 -17 -47 0 -64 19 -19 56 -29 70 -18
15 11 47 23 47 17 0 -2 -13 -11 -30 -20 -34 -18 -72 -19 -87 -4 -9 9 -11 2 -9
-26 1 -23 9 -42 21 -51 10 -8 13 -14 6 -14 -7 0 -9 -5 -6 -10 5 -8 11 -8 20 0
7 6 16 7 19 2 2 -4 26 -9 53 -10 26 -2 56 -5 67 -8 12 -4 16 -2 12 5 -4 6 -1
11 8 11 8 0 21 3 30 6 11 4 16 1 16 -10 0 -9 -7 -16 -16 -16 -8 0 -12 -5 -9
-10 4 -6 11 -8 16 -5 5 4 9 2 9 -3 0 -13 -68 -45 -79 -37 -5 3 -11 2 -13 -2
-2 -6 -186 -73 -233 -85 -6 -2 -10 37 -9 102 0 60 -3 92 -7 75 -3 -16 -7 -67
-8 -112 0 -46 -3 -83 -5 -83 -2 0 -13 -3 -23 -6 -17 -6 -17 -6 -1 7 13 11 17
35 19 109 3 129 -3 164 -11 60 -4 -53 -7 23 -8 199 -1 156 0 282 2 280 2 -2 6
-44 9 -92 8 -123 20 -124 16 -2 -2 55 -6 102 -10 105 -3 3 3 13 13 23 17 16
18 15 12 -35 -4 -39 -2 -49 5 -38 10 13 12 13 21 0 5 -8 10 -10 10 -4 0 7 18
14 40 16 22 2 40 0 40 -4 0 -5 -7 -8 -15 -8 -9 0 -15 -9 -15 -24 0 -19 4 -23
20 -19 11 3 20 12 20 19 0 8 12 19 26 24 35 14 44 13 44 -5 0 -14 3 -14 30 0
32 17 40 35 14 35 -14 0 -14 1 0 16 11 10 14 25 10 42 l-6 27 17 -23 c13 -18
14 -27 6 -35z m-2200 10 c-8 -8 -11 -7 -11 4 0 20 13 34 18 19 3 -7 -1 -17 -7
-23z m129 23 c0 -5 -7 -10 -15 -10 -8 0 -15 5 -15 10 0 6 7 10 15 10 8 0 15
-4 15 -10z m2344 -6 c3 -8 2 -12 -4 -9 -6 3 -10 10 -10 16 0 14 7 11 14 -7z
m-2654 -4 c0 -5 -4 -10 -10 -10 -5 0 -10 5 -10 10 0 6 5 10 10 10 6 0 10 -4
10 -10z m-250 -20 c-24 -15 -36 -11 -14 4 10 8 21 12 24 10 2 -3 -2 -9 -10
-14z m207 -2 c-3 -8 -6 -5 -6 6 -1 11 2 17 5 13 3 -3 4 -12 1 -19z m444 -36
c-28 -36 -61 -51 -61 -29 0 5 7 6 16 3 10 -4 14 -1 12 6 -3 7 -24 15 -48 18
l-44 5 40 14 c21 8 42 19 46 25 5 7 8 4 8 -6 0 -12 -8 -18 -22 -19 l-23 -2 23
-4 c12 -2 22 -9 22 -14 0 -5 5 -9 11 -9 6 0 8 9 4 22 -6 16 -4 20 8 15 10 -4
17 2 22 16 4 14 8 17 12 9 2 -6 -9 -29 -26 -50z m2019 54 c0 -3 -4 -8 -10 -11
-5 -3 -10 -1 -10 4 0 6 5 11 10 11 6 0 10 -2 10 -4z m860 -6 c0 -5 -4 -10 -10
-10 -5 0 -10 5 -10 10 0 6 5 10 10 10 6 0 10 -4 10 -10z m54 4 c17 -7 22 -34
6 -34 -5 0 -10 6 -10 14 0 8 -6 17 -12 19 -7 3 -10 6 -6 6 3 1 13 -2 22 -5z
m-2324 -14 c0 -5 -2 -10 -4 -10 -3 0 -8 5 -11 10 -3 6 -1 10 4 10 6 0 11 -4
11 -10z m2190 -5 c0 -8 -4 -15 -10 -15 -5 0 -7 7 -4 15 4 8 8 15 10 15 2 0 4
-7 4 -15z m-2245 -5 c-3 -5 -11 -10 -16 -10 -6 0 -7 5 -4 10 3 6 11 10 16 10
6 0 7 -4 4 -10z m1736 -15 c5 3 6 -1 3 -9 -3 -9 -2 -16 4 -16 6 0 13 6 15 13
4 9 6 9 6 0 2 -24 -22 -25 -40 -2 -10 13 -19 29 -18 34 0 6 4 2 10 -8 6 -9 14
-15 20 -12z m552 10 c-3 -9 -8 -14 -10 -11 -3 3 -2 9 2 15 9 16 15 13 8 -4z
m74 9 c-3 -3 -12 -4 -19 -1 -8 3 -5 6 6 6 11 1 17 -2 13 -5z m-3607 -14 c0 -5
-2 -10 -4 -10 -3 0 -8 5 -11 10 -3 6 -1 10 4 10 6 0 11 -4 11 -10z m444 4 c18
-7 23 -84 6 -84 -5 0 -10 18 -10 40 0 29 -4 40 -15 40 -11 0 -15 -11 -15 -40
0 -29 -4 -40 -15 -40 -23 0 -21 77 3 83 27 7 29 7 46 1z m2998 -16 c-7 -7 -12
-8 -12 -2 0 14 12 26 19 19 2 -3 -1 -11 -7 -17z m-3171 -19 c-5 -13 -10 -19
-10 -12 -1 15 10 45 15 40 3 -2 0 -15 -5 -28z m2326 25 c-3 -3 -12 -4 -19 -1
-8 3 -5 6 6 6 11 1 17 -2 13 -5z m447 -9 c-5 -11 -1 -14 12 -9 11 3 15 2 8 -3
-20 -15 -35 -51 -24 -58 14 -8 30 3 30 21 0 8 5 14 11 14 6 0 9 -9 6 -20 -3
-10 -1 -20 3 -22 4 -2 2 -9 -6 -16 -11 -10 -20 -7 -48 20 l-34 32 21 28 c23
31 29 35 21 13z m216 5 c0 -5 -4 -10 -10 -10 -5 0 -10 5 -10 10 0 6 5 10 10
10 6 0 10 -4 10 -10z m49 -35 c1 -5 -6 -2 -15 7 -10 9 -13 21 -8 29 5 9 9 8
15 -7 4 -10 8 -23 8 -29z m-2749 -4 c0 -21 -19 -41 -39 -41 -14 0 -14 2 -1 11
12 8 10 9 -7 4 -20 -5 -23 -3 -23 21 0 21 3 24 14 15 10 -9 16 -8 26 4 15 18
30 11 30 -14z m3202 2 c29 -15 56 -31 59 -35 3 -5 38 -24 77 -43 50 -24 72
-40 72 -52 0 -15 -4 -14 -20 7 l-20 25 9 -32 c5 -18 12 -37 16 -43 10 -16 25
-12 19 5 -4 9 0 15 10 15 20 0 20 -10 0 -39 -13 -18 -14 -25 -4 -34 10 -9 12
-9 8 3 -8 23 24 51 42 39 13 -9 12 -10 -2 -5 -11 3 -19 -2 -23 -14 -10 -30 2
-41 31 -30 32 13 43 12 24 0 -12 -8 -12 -10 5 -10 11 0 38 -9 60 -19 32 -15
37 -20 23 -26 -20 -8 -24 -40 -8 -50 6 -4 8 -12 4 -18 -3 -7 2 -3 11 8 l17 20
-5 -20 c-3 -11 -15 -53 -27 -94 -21 -73 -21 -73 -42 -55 -12 11 -18 13 -13 5
6 -11 4 -13 -9 -8 -10 4 -24 7 -33 7 -10 0 -13 6 -9 16 5 13 4 14 -7 6 -10 -9
-18 -8 -33 2 -18 14 -18 15 -1 21 9 4 29 4 43 1 18 -5 24 -3 19 5 -4 6 -3 14
3 18 13 8 -3 30 -40 54 -33 21 -36 32 -9 34 15 1 18 -3 14 -15 -6 -14 -5 -15
9 -2 9 8 16 17 15 20 -1 3 4 15 11 26 12 23 7 35 -12 28 -7 -3 -19 2 -26 11
-7 8 -18 15 -24 15 -15 0 -78 118 -70 131 3 5 1 9 -3 9 -14 0 -63 -61 -57 -71
3 -5 -2 -12 -11 -15 -9 -4 -14 -13 -11 -20 7 -18 1 -18 -18 2 -14 14 -18 14
-31 1 -9 -10 -11 -17 -5 -20 6 -3 5 -4 -1 -3 -7 1 -13 12 -14 23 -1 15 3 20
14 16 11 -3 10 0 -3 11 -11 9 -17 18 -14 22 4 3 16 -4 28 -16 25 -25 44 -22
48 8 2 12 10 22 18 22 13 0 19 12 15 33 -1 5 3 6 8 3 5 -3 15 2 22 11 13 15
11 16 -14 9 -23 -5 -34 0 -69 34 -40 38 -67 53 -52 28 4 -7 3 -8 -5 -4 -6 4
-9 12 -6 17 8 11 -6 11 -24 0 -16 -10 -46 13 -37 28 4 5 0 12 -6 14 -9 4 -9 6
-1 6 6 1 35 -11 65 -26z m-3448 2 c-4 -8 -8 -15 -10 -15 -2 0 -4 7 -4 15 0 8
4 15 10 15 5 0 7 -7 4 -15z m3208 -21 c-6 -34 -21 -30 -20 5 1 18 5 28 13 25
7 -3 10 -16 7 -30z m-3153 -35 c-2 -51 1 -64 17 -76 16 -12 17 -15 4 -23 -8
-5 -10 -10 -5 -10 6 0 16 -10 24 -22 12 -19 8 -17 -22 7 -19 17 -36 34 -36 39
-1 5 6 3 14 -4 10 -8 15 -9 15 -1 0 14 -55 42 -64 33 -4 -3 -2 6 3 21 15 39
13 47 -4 17 -16 -28 -21 -19 -5 10 6 11 17 17 25 14 11 -5 17 3 21 25 10 49
16 36 13 -30z m221 51 c0 -5 -4 -10 -10 -10 -5 0 -10 5 -10 10 0 6 5 10 10 10
6 0 10 -4 10 -10z m2892 -48 c-7 -20 -22 6 -22 38 l0 25 13 -25 c8 -14 11 -31
9 -38z m-352 39 c0 -5 8 -12 18 -14 14 -4 14 -5 1 -6 -9 0 -22 6 -29 14 -9 10
-9 15 -1 15 6 0 11 -4 11 -9z m104 -6 c-4 -8 -11 -15 -16 -15 -6 0 -5 6 2 15
7 8 14 15 16 15 2 0 1 -7 -2 -15z m-3300 -20 c-4 -8 -11 -12 -16 -9 -6 4 -5
10 3 15 19 12 19 11 13 -6z m363 -17 c-3 -7 -5 -2 -5 12 0 14 2 19 5 13 2 -7
2 -19 0 -25z m321 3 c-21 -18 -37 -26 -44 -21 -6 6 -22 3 -39 -6 -32 -16 -30
-17 -39 14 -7 21 9 33 16 11 4 -11 58 -2 56 10 -2 17 5 21 42 21 l40 0 -32
-29z m2697 -23 c1 -21 -5 -42 -18 -58 -11 -14 -17 -17 -14 -8 6 16 -20 35 -31
23 -3 -3 0 -5 7 -5 7 0 9 -4 6 -10 -3 -5 -11 -10 -16 -10 -6 0 -7 5 -4 10 7
12 -7 13 -21 3 -5 -5 2 2 16 14 14 13 33 23 43 23 9 0 17 4 17 10 0 5 -7 7
-15 4 -19 -8 -19 3 0 23 8 8 12 20 9 26 -5 9 -3 8 6 0 7 -7 14 -27 15 -45z
m380 42 c-3 -5 -12 -10 -18 -10 -7 0 -6 4 3 10 19 12 23 12 15 0z m-3807 -64
l-3 -31 -60 3 c-33 1 -64 8 -70 14 -7 7 -2 9 18 4 18 -4 26 -3 23 3 -4 6 4 15
16 22 20 11 22 11 10 -3 -10 -13 -10 -18 -1 -24 7 -4 15 -2 17 4 2 7 10 12 18
12 21 0 17 18 -7 30 -16 9 -29 7 -61 -10 -22 -11 -42 -19 -44 -17 -3 2 17 15
43 29 44 22 50 23 76 10 23 -12 28 -19 25 -46z m1218 42 l19 -21 -27 18 c-29
18 -34 25 -20 25 5 0 17 -10 28 -22z m84 -20 c0 -5 -4 -8 -10 -8 -5 0 -10 7
-10 15 0 8 -5 15 -11 15 -5 0 -7 5 -4 11 7 10 34 -16 35 -33z m18 17 c-3 -3
-9 2 -12 12 -6 14 -5 15 5 6 7 -7 10 -15 7 -18z m-1057 -9 c5 3 9 0 9 -6 0 -7
-5 -10 -12 -8 -6 2 -26 -12 -44 -31 -19 -20 -34 -30 -34 -23 0 6 5 12 11 12 5
0 7 5 3 12 -4 6 -3 8 4 4 6 -3 19 7 29 24 10 17 19 26 21 20 2 -5 8 -8 13 -4z
m3358 -19 c-1 -17 -2 -18 -6 -4 -2 9 -9 15 -14 12 -5 -3 -6 1 -3 9 8 22 24 10
23 -17z m-2345 -2 c15 -23 15 -27 0 -50 -20 -30 -31 -26 -12 4 10 17 10 25 0
41 -23 37 -12 42 12 5z m1961 5 c-3 -5 -13 -6 -21 -3 -12 4 -13 8 -3 14 15 9
32 2 24 -11z m441 -30 c19 0 35 -3 35 -7 6 -30 4 -81 -2 -77 -5 2 -5 12 -2 22
6 14 4 15 -8 5 -13 -10 -21 -7 -46 15 -26 24 -29 33 -24 63 5 32 6 32 9 7 3
-24 8 -28 38 -28z m239 39 c12 -19 -5 -23 -22 -6 -16 16 -16 17 -1 17 9 0 20
-5 23 -11z m-3864 -41 c-13 -5 -26 -6 -29 -3 -3 3 0 5 7 5 8 0 11 7 7 15 -5
13 -2 14 16 4 l22 -12 -23 -9z m607 10 c-13 -12 -30 -30 -39 -40 -15 -16 -16
-15 -16 13 0 20 3 26 9 17 7 -10 13 -8 25 10 8 12 22 22 29 22 9 0 6 -8 -8
-22z m722 -73 l0 -95 -27 0 c-24 0 -28 4 -29 28 -4 100 -14 133 -28 96 -9 -23
-7 -36 4 -29 6 3 10 2 10 -4 0 -5 -12 -8 -27 -7 -16 2 -37 5 -48 6 -13 1 -15
3 -6 7 11 5 11 7 0 14 -9 6 -10 9 -2 9 6 0 15 -4 18 -10 16 -26 36 -6 59 63 4
12 16 17 41 17 l35 0 0 -95z m1970 85 c0 -5 -7 -10 -15 -10 -8 0 -15 5 -15 10
0 6 7 10 15 10 8 0 15 -4 15 -10z m-3522 -14 c-10 -7 -18 -19 -18 -26 0 -7 -8
-10 -20 -7 -11 3 -20 1 -20 -4 0 -5 3 -9 8 -10 4 0 15 -2 25 -4 11 -2 17 3 17
16 0 10 4 19 9 19 6 0 6 -12 -1 -31 -6 -17 -16 -28 -23 -26 -6 3 -12 -1 -12
-9 0 -7 5 -11 10 -7 21 13 -15 -37 -48 -66 -25 -22 -43 -30 -56 -26 -11 4 -19
2 -19 -5 0 -6 4 -9 9 -6 5 3 11 -4 15 -17 4 -16 12 -23 30 -22 13 0 28 3 32 8
4 4 12 7 18 7 5 0 -5 -16 -24 -35 -34 -35 -55 -41 -29 -8 13 16 12 17 -3 5 -9
-7 -20 -28 -24 -45 -6 -28 -8 -30 -15 -12 -4 11 -8 14 -8 8 -1 -7 -2 -16 -3
-20 -6 -16 56 -22 88 -8 32 13 33 13 23 -9 -9 -18 -60 -47 -89 -51 -3 0 -10
-4 -16 -8 -7 -4 -16 -1 -21 6 -18 22 -45 105 -38 116 3 6 1 11 -5 11 -6 0 -8
5 -5 10 4 6 2 16 -3 23 -13 17 -21 67 -11 67 5 0 9 4 9 9 0 12 60 74 90 93 17
10 31 12 45 6 19 -8 19 -8 -1 -5 -11 3 -28 -1 -38 -8 -15 -11 -15 -13 -1 -19
9 -3 13 -2 10 4 -4 6 6 10 21 10 27 0 27 -1 8 -16 -18 -15 -18 -15 4 -9 13 4
22 2 22 -4 0 -6 -4 -11 -9 -11 -5 0 -20 -14 -32 -31 -19 -27 -19 -29 -3 -19
37 23 56 58 44 80 -8 15 -8 20 2 20 7 1 2 7 -11 14 l-25 14 50 25 c55 29 68
33 42 13z m3405 -11 c-3 -9 -8 -14 -10 -11 -3 3 -2 9 2 15 9 16 15 13 8 -4z
m-3103 -5 c0 -5 -4 -10 -10 -10 -5 0 -10 5 -10 10 0 6 5 10 10 10 6 0 10 -4
10 -10z m30 -12 c0 -18 -2 -20 -9 -8 -6 8 -7 18 -5 22 9 14 14 9 14 -14z
m1255 -466 c-2 -3 -28 4 -57 16 -29 11 -45 21 -35 21 10 1 15 6 12 11 -4 6 6
10 24 10 16 0 33 -5 37 -11 4 -7 0 -9 -14 -5 -11 4 -23 2 -27 -4 -4 -6 4 -10
20 -10 15 0 24 -4 20 -10 -3 -5 -1 -10 4 -10 8 0 12 80 13 243 l3 242 2 -244
c2 -134 1 -246 -2 -249z m-842 471 c-7 -2 -21 -2 -30 0 -10 3 -4 5 12 5 17 0
24 -2 18 -5z m3612 -51 c-5 -5 -94 42 -95 50 0 5 22 -4 49 -19 27 -16 48 -29
46 -31z m-3984 28 c-13 -11 -28 -20 -35 -20 -6 0 3 9 19 19 39 25 46 25 16 1z
m586 -15 c39 0 75 -4 79 -7 11 -11 -58 -96 -88 -109 -15 -6 -25 -15 -22 -20 3
-5 -2 -6 -10 -3 -9 3 -16 2 -16 -3 0 -17 -45 -32 -64 -21 -25 14 -44 3 -48
-29 -3 -26 -38 -48 -38 -24 0 6 8 11 18 11 14 0 15 2 2 10 -8 5 -19 5 -25 0
-7 -6 -15 -2 -23 11 -7 10 -23 19 -37 19 -29 0 -74 39 -67 59 2 8 0 11 -5 8
-6 -4 -19 3 -29 14 -16 18 -16 19 -1 13 9 -3 17 -9 17 -13 0 -4 19 -5 43 -3
28 3 51 13 70 30 15 14 27 21 27 15 0 -7 -11 -20 -25 -31 -13 -11 -22 -22 -19
-25 3 -3 -3 -10 -14 -16 -17 -9 -21 -8 -25 7 -4 16 -4 16 -12 -1 -5 -12 -2
-22 11 -32 26 -20 39 -19 23 1 -12 15 -11 16 11 9 14 -4 31 -10 38 -12 18 -7
15 8 -5 23 -17 12 -16 15 10 41 22 22 27 24 27 10 0 -10 -7 -20 -16 -24 -13
-5 -13 -7 -2 -14 7 -5 20 -9 28 -9 12 0 12 2 1 9 -8 5 -9 11 -3 15 6 3 13 2
17 -3 3 -6 27 -13 53 -17 l47 -7 -30 -13 c-16 -7 -25 -13 -18 -14 6 0 20 -3
30 -7 10 -3 14 -2 10 3 -4 4 15 18 43 31 27 12 50 28 50 35 0 9 -3 9 -8 2 -23
-36 -87 -40 -119 -9 -8 8 -23 15 -34 15 -25 0 -26 45 -1 59 9 6 12 11 7 11 -6
0 -22 -8 -35 -17 l-25 -16 25 29 c37 43 41 44 74 26 20 -10 58 -16 103 -17z
m-874 11 c6 -15 -1 -26 -15 -26 -4 0 -8 9 -8 20 0 23 15 27 23 6z m124 8 c-3
-3 -12 -4 -19 -1 -8 3 -5 6 6 6 11 1 17 -2 13 -5z m3194 -17 c-10 -9 -11 -8
-5 6 3 10 9 15 12 12 3 -3 0 -11 -7 -18z m-3231 3 c0 -5 -8 -10 -17 -10 -15 0
-16 2 -3 10 19 12 20 12 20 0z m1060 -18 c0 -13 2 -14 8 -4 6 9 16 10 32 4 24
-9 23 -9 -8 -14 -25 -3 -35 0 -43 13 -12 23 -12 32 1 24 6 -3 10 -14 10 -23z
m1964 6 c5 -19 8 -20 15 -8 7 10 10 5 9 -19 l-1 -33 -18 23 c-21 27 -31 59
-19 59 4 0 10 -10 14 -22z m349 10 c-2 -5 -10 -8 -18 -8 -8 0 -16 3 -18 8 -3
4 5 7 18 7 13 0 21 -3 18 -7z m-178 -16 c-3 -3 -11 0 -18 7 -9 10 -8 11 6 5
10 -3 15 -9 12 -12z m-2030 -2 c3 -6 -1 -7 -9 -4 -18 7 -21 14 -7 14 6 0 13
-4 16 -10z m2695 0 c0 -5 -15 -10 -32 -9 -28 0 -30 2 -13 9 28 12 45 12 45 0z
m-3904 -25 c-1 -22 -2 -23 -13 -9 -12 17 -9 34 7 34 4 0 7 -11 6 -25z m3171
19 c-3 -3 -12 -4 -19 -1 -8 3 -5 6 6 6 11 1 17 -2 13 -5z m1098 -12 c-3 -3
-11 0 -18 7 -9 10 -8 11 6 5 10 -3 15 -9 12 -12z m-4305 -17 c14 -19 14 -19
-2 -6 -10 7 -18 18 -18 24 0 6 1 8 3 6 1 -2 9 -13 17 -24z m180 -5 l30 -30 -5
32 c-4 27 -3 28 3 8 5 -15 17 -26 30 -28 28 -4 29 -36 1 -48 -19 -9 -17 -10
15 -11 20 -1 36 3 36 9 0 5 -4 7 -9 4 -4 -3 -8 4 -7 16 1 15 8 22 23 23 18 1
20 -1 11 -12 -9 -11 -13 -12 -19 -1 -6 9 -9 9 -9 1 0 -19 20 -26 38 -12 9 8 6
2 -6 -13 -18 -20 -32 -26 -61 -25 -47 2 -91 36 -91 71 0 16 -6 26 -15 26 -8 0
-15 5 -15 10 0 18 20 10 50 -20z m1050 20 c0 -5 -4 -10 -10 -10 -5 0 -10 5
-10 10 0 6 5 10 10 10 6 0 10 -4 10 -10z m1923 -5 c-3 -9 -8 -14 -10 -11 -3 3
-2 9 2 15 9 16 15 13 8 -4z m1227 -39 c0 -5 -7 -2 -17 5 -13 11 -17 11 -20 2
-3 -7 -9 -13 -15 -13 -6 0 -4 7 3 17 13 15 11 16 -13 10 -15 -4 -30 -3 -33 3
-3 5 0 7 8 4 8 -3 18 -1 21 5 7 11 66 -18 66 -33z m-3142 2 c-16 -16 -22 -18
-29 -7 -6 9 -9 10 -9 2 0 -22 38 -39 84 -38 48 2 53 -3 34 -34 -9 -16 -16 -17
-35 -8 -26 11 -29 22 -10 31 6 3 0 4 -14 1 -19 -3 -34 2 -53 22 -30 30 -23 47
23 50 l30 2 -21 -21z m2291 0 c-12 -24 -68 -77 -81 -78 -17 0 -7 18 11 23 14
3 18 11 14 25 -2 11 0 23 5 26 6 4 8 -3 6 -16 -2 -13 -2 -17 2 -10 3 6 11 9
17 5 7 -4 8 0 4 11 -4 9 -3 15 2 12 5 -3 11 1 15 9 3 8 8 15 11 15 3 0 0 -10
-6 -22z m256 -2 c-25 -18 -11 -23 65 -26 98 -4 122 -2 114 12 -5 7 -3 8 5 4 7
-5 20 -2 30 6 9 7 6 3 -7 -9 -13 -13 -32 -23 -43 -23 -19 0 -28 -19 -9 -21 6
-1 15 -3 20 -4 6 -1 18 -3 27 -4 30 -2 5 -14 -42 -21 -5 -1 0 -5 12 -10 14 -6
20 -15 17 -27 -4 -15 -13 -17 -50 -15 -27 3 -44 0 -44 -7 0 -6 -8 -11 -17 -11
-13 0 -14 -3 -6 -8 7 -4 34 -5 60 -2 36 4 51 1 61 -10 10 -11 15 -12 18 -2 3
6 10 12 15 12 6 0 7 -5 3 -12 -4 -6 -3 -8 4 -4 6 3 13 2 17 -4 7 -12 -19 -12
-140 1 -49 5 -120 9 -157 9 -36 -1 -69 3 -72 8 -3 5 18 7 47 5 29 -2 58 0 66
6 16 10 25 75 10 65 -12 -7 -96 43 -114 69 -22 32 -18 37 18 22 28 -11 36 -11
67 4 39 19 53 18 25 -3z m-4108 -8 c-3 -8 -6 -5 -6 6 -1 11 2 17 5 13 3 -3 4
-12 1 -19z m673 18 c0 -3 -4 -8 -10 -11 -5 -3 -10 -1 -10 4 0 6 5 11 10 11 6
0 10 -2 10 -4z m957 -17 c-9 -6 -15 -14 -12 -18 2 -5 -10 -8 -28 -6 -17 1 -31
5 -29 9 1 3 2 11 2 16 0 6 19 10 43 10 34 -1 38 -3 24 -11z m2151 -14 c-3 -30
-3 -30 -34 -6 -25 20 -19 29 18 30 13 1 17 -6 16 -24z m-225 -45 c7 1 5 6 -5
14 -15 11 -13 13 20 13 33 1 34 0 12 -8 -20 -7 -16 -8 18 -5 23 2 40 0 36 -5
-3 -5 -21 -9 -40 -9 -21 0 -33 -4 -29 -10 9 -15 -3 -12 -36 7 -16 10 -29 23
-29 30 0 8 7 6 20 -7 11 -11 26 -20 33 -20z m184 24 c14 -13 14 -17 2 -25 -10
-6 -10 -9 -2 -9 9 0 7 -7 -4 -20 -21 -24 -76 -28 -67 -5 4 8 1 15 -5 15 -6 0
-11 -6 -12 -12 0 -10 -2 -10 -6 0 -2 6 -9 12 -15 12 -6 0 -3 -11 6 -25 20 -30
21 -46 2 -39 -7 3 -13 13 -12 22 0 8 -10 21 -23 28 -22 11 -21 12 20 19 33 6
45 4 54 -9 7 -9 19 -16 27 -16 19 0 30 50 16 68 -15 18 1 15 19 -4z m953 1 c0
-8 -4 -15 -10 -15 -5 0 -7 7 -4 15 4 8 8 15 10 15 2 0 4 -7 4 -15z m-4260 -22
c-8 -3 -24 -8 -35 -13 -38 -16 -61 -17 -73 -4 -10 11 -7 13 15 8 17 -3 36 1
47 9 11 8 29 12 40 9 14 -4 16 -7 6 -9z m1290 3 c0 -25 -19 -66 -30 -66 -6 0
-9 4 -6 9 4 5 0 12 -6 15 -10 3 -8 9 5 19 9 8 17 19 17 26 0 6 5 11 10 11 6 0
10 -6 10 -14z m2640 -12 c-17 -19 -50 -37 -50 -27 0 7 48 42 59 43 2 0 -2 -7
-9 -16z m-3878 -28 c16 -28 42 -19 40 14 0 3 12 6 26 6 26 2 26 1 5 -8 -12 -6
-24 -17 -27 -24 -8 -20 4 -44 20 -44 8 0 14 -4 14 -9 0 -4 -12 -7 -26 -5 -15
1 -37 -2 -50 -6 -19 -7 -24 -6 -24 5 0 8 -7 15 -15 15 -9 0 -12 -6 -9 -17 5
-15 4 -15 -4 -4 -9 12 -15 12 -34 3 l-23 -12 25 5 c18 4 21 3 10 -3 -8 -6 -34
-13 -56 -17 -36 -5 -42 -4 -47 14 -4 18 -2 20 21 15 15 -4 29 -8 31 -10 2 -2
12 6 22 17 10 12 22 18 27 15 6 -3 15 0 21 8 9 11 7 12 -11 9 -13 -2 -30 1
-38 6 -12 8 -12 13 5 30 22 25 82 23 97 -3z m570 -8 c-6 -6 -15 -8 -19 -4 -4
4 -1 11 7 16 19 12 27 3 12 -12z m1988 2 c-20 -13 -33 -13 -25 0 3 6 14 10 23
10 15 0 15 -2 2 -10z m-2093 -14 c-3 -8 -1 -17 6 -20 7 -2 2 -5 -10 -5 -16 -1
-20 3 -16 19 3 11 10 20 15 20 6 0 8 -6 5 -14z m853 -26 l0 -40 -46 0 c-27 0
-43 4 -39 10 3 6 2 10 -4 10 -5 0 -13 -5 -16 -10 -4 -7 -13 -6 -26 1 -16 8
-18 13 -8 25 6 8 16 14 21 14 6 0 5 -7 -2 -15 -10 -12 -10 -15 1 -15 19 0 40
15 38 26 -5 27 4 34 41 34 l40 0 0 -40z m1890 10 c0 -5 -4 -10 -10 -10 -5 0
-10 5 -10 10 0 6 5 10 10 10 6 0 10 -4 10 -10z m45 -19 c-6 -5 -25 10 -25 20
0 5 6 4 14 -3 8 -7 12 -15 11 -17z m-2685 15 c0 -3 -4 -8 -10 -11 -5 -3 -10
-1 -10 4 0 6 5 11 10 11 6 0 10 -2 10 -4z m-385 -26 c-3 -5 -27 -9 -53 -8
l-47 1 45 7 c25 4 49 8 53 8 5 1 5 -2 2 -8z m175 -4 c-4 -4 -16 -4 -26 2 -16
9 -14 10 8 9 15 -1 23 -6 18 -11z m97 8 c-3 -3 -12 -4 -19 -1 -8 3 -5 6 6 6
11 1 17 -2 13 -5z m83 -12 c0 -12 -3 -12 -17 -1 -10 7 -20 14 -22 16 -2 1 6 1
18 0 11 -1 21 -8 21 -15z m2837 12 c-3 -3 -12 -4 -19 -1 -8 3 -5 6 6 6 11 1
17 -2 13 -5z m-2970 -10 c-3 -3 -12 -4 -19 -1 -8 3 -5 6 6 6 11 1 17 -2 13 -5z
m167 -10 c3 -8 2 -12 -4 -9 -6 3 -10 10 -10 16 0 14 7 11 14 -7z m589 9 c3 -5
-9 -9 -26 -10 -26 -1 -28 0 -12 7 26 11 33 12 38 3z m1942 -3 c3 -5 1 -10 -4
-10 -6 0 -11 5 -11 10 0 6 2 10 4 10 3 0 8 -4 11 -10z m192 4 c-3 -3 -12 -4
-19 -1 -8 3 -5 6 6 6 11 1 17 -2 13 -5z m-2317 -16 c0 -4 -4 -8 -9 -8 -6 0
-12 4 -15 8 -3 5 1 9 9 9 8 0 15 -4 15 -9z m40 3 c0 -5 -7 -11 -14 -14 -10 -4
-13 -1 -9 9 6 15 23 19 23 5z m2060 -1 c0 -5 -4 -10 -9 -10 -6 0 -13 5 -16 10
-3 6 1 10 9 10 9 0 16 -4 16 -10z m-2000 -20 c0 -5 -2 -10 -4 -10 -3 0 -8 5
-11 10 -3 6 -1 10 4 10 6 0 11 -4 11 -10z m-25 -16 c14 -9 25 -23 25 -30 0
-16 4 -17 85 -16 44 1 53 -1 35 -7 -21 -7 -54 -7 -117 -2 -7 1 -13 8 -13 16 0
8 -15 24 -32 35 -18 11 -27 20 -20 20 7 0 24 -7 37 -16z m265 -60 c0 -2 -9 -4
-20 -4 -11 0 -20 4 -20 9 0 5 9 7 20 4 11 -3 20 -7 20 -9z m-80 -4 c-8 -5 -10
-10 -5 -10 13 0 -17 -20 -30 -20 -5 0 -3 5 5 11 11 8 7 9 -19 5 -43 -8 -34 3
11 14 47 11 55 11 38 0z m-1424 -427 c150 -174 365 -362 569 -500 509 -343
1279 -500 1915 -392 442 75 746 189 1060 396 171 114 426 336 533 466 86 104
79 100 165 93 226 -20 472 -107 656 -230 90 -61 262 -216 271 -245 19 -61
-293 -466 -516 -672 -394 -362 -778 -604 -1267 -798 -301 -119 -542 -178 -961
-232 -153 -20 -726 -16 -811 6 -8 2 -37 6 -65 10 -374 45 -798 177 -1150 356
-334 170 -586 343 -894 613 -184 161 -482 522 -565 684 l-17 34 82 79 c118
115 188 165 324 234 191 97 412 161 561 164 52 1 52 1 110 -66z m1518 39 c8
-26 64 -75 111 -100 101 -52 262 -82 447 -82 140 0 188 -24 188 -94 -1 -83
-46 -103 -226 -105 -352 -4 -656 89 -705 216 -20 54 15 108 101 157 53 30 77
33 84 8z"/>
<path d="M5425 7640 c-3 -5 -1 -10 4 -10 6 0 11 5 11 10 0 6 -2 10 -4 10 -3 0
-8 -4 -11 -10z"/>
<path d="M4255 7621 c-3 -5 -2 -12 3 -15 5 -3 9 1 9 9 0 17 -3 19 -12 6z"/>
<path d="M4581 7564 c0 -11 3 -14 6 -6 3 7 2 16 -1 19 -3 4 -6 -2 -5 -13z"/>
<path d="M4606 7535 c-3 -8 -1 -15 4 -15 6 0 10 7 10 15 0 8 -2 15 -4 15 -2 0
-6 -7 -10 -15z"/>
<path d="M4730 7509 c0 -5 5 -7 10 -4 6 3 10 8 10 11 0 2 -4 4 -10 4 -5 0 -10
-5 -10 -11z"/>
<path d="M5490 7454 c0 -8 5 -12 10 -9 6 4 8 11 5 16 -9 14 -15 11 -15 -7z"/>
<path d="M5428 7443 c6 -2 18 -2 25 0 6 3 1 5 -13 5 -14 0 -19 -2 -12 -5z"/>
<path d="M5705 7430 c3 -5 10 -10 16 -10 5 0 9 5 9 10 0 6 -7 10 -16 10 -8 0
-12 -4 -9 -10z"/>
<path d="M5660 7410 c0 -5 5 -10 10 -10 6 0 10 5 10 10 0 6 -4 10 -10 10 -5 0
-10 -4 -10 -10z"/>
<path d="M3790 7400 c-8 -5 -10 -10 -5 -10 6 0 17 5 25 10 8 5 11 10 5 10 -5
0 -17 -5 -25 -10z"/>
<path d="M5325 7370 c-3 -5 -1 -10 4 -10 6 0 11 5 11 10 0 6 -2 10 -4 10 -3 0
-8 -4 -11 -10z"/>
<path d="M3921 7324 c0 -11 3 -14 6 -6 3 7 2 16 -1 19 -3 4 -6 -2 -5 -13z"/>
<path d="M5351 7304 c0 -11 3 -14 6 -6 3 7 2 16 -1 19 -3 4 -6 -2 -5 -13z"/>
<path d="M6474 7283 c-10 -7 -13 -13 -7 -13 7 0 15 5 18 10 4 6 14 8 23 6 10
-3 23 -2 30 3 8 5 3 8 -16 8 -16 0 -38 -6 -48 -14z"/>
<path d="M6684 7221 c4 -5 0 -11 -6 -14 -7 -3 -3 -4 9 -4 17 1 19 4 11 14 -12
15 -22 18 -14 4z"/>
<path d="M5255 7200 c-3 -5 -2 -18 4 -27 7 -14 9 -12 8 10 -2 30 -3 31 -12 17z"/>
<path d="M4190 7170 c0 -5 5 -10 10 -10 6 0 10 5 10 10 0 6 -4 10 -10 10 -5 0
-10 -4 -10 -10z"/>
<path d="M5295 7170 c-3 -5 1 -10 9 -10 9 0 16 5 16 10 0 6 -4 10 -9 10 -6 0
-13 -4 -16 -10z"/>
<path d="M4720 7155 c0 -8 7 -15 15 -15 8 0 15 4 15 9 0 5 -7 11 -15 15 -9 3
-15 0 -15 -9z"/>
<path d="M3485 7140 c3 -5 8 -10 11 -10 2 0 4 5 4 10 0 6 -5 10 -11 10 -5 0
-7 -4 -4 -10z"/>
<path d="M6826 7063 c3 -28 24 -47 37 -34 9 9 -11 48 -29 55 -7 3 -10 -6 -8
-21z m29 -21 c-3 -3 -11 0 -18 7 -9 10 -8 11 6 5 10 -3 15 -9 12 -12z"/>
<path d="M6335 7030 c3 -5 8 -10 11 -10 2 0 4 5 4 10 0 6 -5 10 -11 10 -5 0
-7 -4 -4 -10z"/>
<path d="M6065 7021 c-3 -5 -1 -12 5 -16 5 -3 10 1 10 9 0 18 -6 21 -15 7z"/>
<path d="M6030 7000 c0 -5 5 -10 10 -10 6 0 10 5 10 10 0 6 -4 10 -10 10 -5 0
-10 -4 -10 -10z"/>
<path d="M6225 7000 c3 -5 8 -10 11 -10 2 0 4 5 4 10 0 6 -5 10 -11 10 -5 0
-7 -4 -4 -10z"/>
<path d="M6175 6970 c3 -5 10 -10 16 -10 5 0 9 5 9 10 0 6 -7 10 -16 10 -8 0
-12 -4 -9 -10z"/>
<path d="M6971 6914 c-1 -6 5 -17 12 -23 10 -8 14 -7 14 4 0 8 -4 12 -8 9 -4
-2 -10 2 -12 8 -4 8 -6 9 -6 2z"/>
<path d="M5496 6855 c-9 -26 -7 -32 5 -12 6 10 9 21 6 23 -2 3 -7 -2 -11 -11z"/>
<path d="M6160 6850 c0 -5 5 -10 10 -10 6 0 10 5 10 10 0 6 -4 10 -10 10 -5 0
-10 -4 -10 -10z"/>
<path d="M4386 6821 c-4 -7 -5 -15 -2 -18 9 -9 19 4 14 18 -4 11 -6 11 -12 0z"/>
<path d="M5978 6803 c7 -3 16 -2 19 1 4 3 -2 6 -13 5 -11 0 -14 -3 -6 -6z"/>
<path d="M4265 6790 c3 -5 10 -10 16 -10 5 0 9 5 9 10 0 6 -7 10 -16 10 -8 0
-12 -4 -9 -10z"/>
<path d="M6030 6790 c0 -5 5 -10 10 -10 6 0 10 5 10 10 0 6 -4 10 -10 10 -5 0
-10 -4 -10 -10z"/>
<path d="M4311 6754 c0 -11 3 -14 6 -6 3 7 2 16 -1 19 -3 4 -6 -2 -5 -13z"/>
<path d="M4460 6750 c0 -5 5 -10 10 -10 6 0 10 5 10 10 0 6 -4 10 -10 10 -5 0
-10 -4 -10 -10z"/>
<path d="M6050 6740 c0 -5 7 -10 15 -10 8 0 15 5 15 10 0 6 -7 10 -15 10 -8 0
-15 -4 -15 -10z"/>
<path d="M4360 6670 c0 -5 7 -10 16 -10 8 0 12 5 9 10 -3 6 -10 10 -16 10 -5
0 -9 -4 -9 -10z"/>
<path d="M5996 6655 c4 -8 11 -15 16 -15 6 0 5 6 -2 15 -7 8 -14 15 -16 15 -2
0 -1 -7 2 -15z"/>
<path d="M4500 6629 c0 -5 5 -7 10 -4 6 3 10 8 10 11 0 2 -4 4 -10 4 -5 0 -10
-5 -10 -11z"/>
<path d="M7120 6620 c0 -5 5 -10 11 -10 5 0 7 5 4 10 -3 6 -8 10 -11 10 -2 0
-4 -4 -4 -10z"/>
<path d="M4600 6606 c0 -8 -6 -17 -12 -19 -8 -4 -7 -6 3 -6 9 -1 19 8 22 19 3
11 1 20 -4 20 -5 0 -9 -6 -9 -14z"/>
<path d="M4316 6555 c4 -8 10 -12 15 -9 11 6 2 24 -11 24 -5 0 -7 -7 -4 -15z"/>
<path d="M4120 6550 c-8 -5 -10 -10 -5 -10 6 0 17 5 25 10 8 5 11 10 5 10 -5
0 -17 -5 -25 -10z"/>
<path d="M6925 6540 c-3 -6 1 -7 9 -4 18 7 21 14 7 14 -6 0 -13 -4 -16 -10z"/>
<path d="M4297 6500 c-13 -16 -14 -20 -3 -20 8 0 17 7 20 16 9 25 2 26 -17 4z"/>
<path d="M7220 6511 c0 -5 7 -15 17 -22 15 -13 15 -12 4 9 -12 23 -21 28 -21
13z"/>
<path d="M4368 6475 c13 -9 26 -14 29 -11 8 8 3 12 -27 21 l-25 7 23 -17z"/>
<path d="M5680 6479 c0 -5 5 -7 10 -4 6 3 10 8 10 11 0 2 -4 4 -10 4 -5 0 -10
-5 -10 -11z"/>
<path d="M4430 6469 c0 -5 5 -7 10 -4 6 3 10 8 10 11 0 2 -4 4 -10 4 -5 0 -10
-5 -10 -11z"/>
<path d="M7198 6473 c7 -3 16 -2 19 1 4 3 -2 6 -13 5 -11 0 -14 -3 -6 -6z"/>
<path d="M7055 6450 c3 -5 8 -10 11 -10 2 0 4 5 4 10 0 6 -5 10 -11 10 -5 0
-7 -4 -4 -10z"/>
<path d="M7190 6421 c0 -5 5 -13 10 -16 6 -3 10 -2 10 4 0 5 -4 13 -10 16 -5
3 -10 2 -10 -4z"/>
<path d="M4307 6413 c-12 -11 -8 -19 11 -19 9 -1 26 -5 37 -9 20 -8 20 -8 1
13 -19 22 -37 28 -49 15z"/>
<path d="M4445 6400 c-3 -6 1 -7 9 -4 18 7 21 14 7 14 -6 0 -13 -4 -16 -10z"/>
<path d="M4394 6384 c3 -9 6 -18 6 -20 0 -2 5 -4 11 -4 8 0 8 4 0 14 -9 11 -9
15 1 19 8 3 6 6 -6 6 -13 1 -16 -4 -12 -15z"/>
<path d="M4368 6363 c-19 -5 -15 -12 27 -43 20 -14 20 -14 2 7 -11 12 -16 27
-12 32 3 6 5 10 3 10 -2 -1 -11 -3 -20 -6z"/>
<path d="M7250 6316 c0 -2 7 -7 16 -10 8 -3 12 -2 9 4 -6 10 -25 14 -25 6z"/>
<path d="M5710 6300 c0 -5 5 -10 10 -10 6 0 10 5 10 10 0 6 -4 10 -10 10 -5 0
-10 -4 -10 -10z"/>
<path d="M4467 6293 c-10 -9 -9 -23 1 -23 5 0 9 7 9 15 0 17 -1 18 -10 8z"/>
<path d="M4873 5336 l-28 -24 -3 -369 c-2 -230 1 -379 7 -396 14 -36 52 -60
85 -51 54 13 56 29 56 443 l0 380 -26 20 c-35 27 -57 26 -91 -3z"/>
<path d="M6080 5584 c0 -10 31 -36 37 -31 3 3 -2 13 -10 22 -16 15 -27 19 -27
9z"/>
<path d="M6130 5536 c0 -2 9 -6 20 -9 11 -3 18 -1 14 4 -5 9 -34 13 -34 5z"/>
<path d="M6040 5409 c0 -11 5 -17 10 -14 6 3 10 13 10 21 0 8 -4 14 -10 14 -5
0 -10 -9 -10 -21z"/>
<path d="M6140 5374 c0 -8 5 -12 10 -9 6 3 10 10 10 16 0 5 -4 9 -10 9 -5 0
-10 -7 -10 -16z"/>
<path d="M5828 5073 c-10 -2 -18 -13 -18 -23 0 -11 -10 -20 -27 -24 -24 -7
-25 -9 -11 -23 10 -9 21 -12 29 -7 9 5 8 10 -7 16 -14 6 -11 7 11 4 20 -3 39
2 55 14 14 11 20 20 15 20 -6 0 -17 -6 -24 -12 -11 -11 -12 -8 -7 15 3 15 5
26 4 26 -2 -1 -11 -3 -20 -6z"/>
<path d="M5705 4883 c0 -114 3 -163 11 -163 6 0 14 28 17 68 11 108 8 158 -7
172 -8 6 -16 28 -18 48 -2 20 -3 -36 -3 -125z"/>
<path d="M5940 4882 c-14 -11 -19 -23 -14 -35 6 -17 7 -17 26 -1 10 10 17 23
14 30 -3 7 0 15 7 18 8 3 9 5 1 5 -7 1 -22 -7 -34 -17z m10 -17 c-7 -9 -15
-13 -17 -11 -7 7 7 26 19 26 6 0 6 -6 -2 -15z"/>
<path d="M5760 4655 c0 -8 2 -15 4 -15 2 0 6 7 10 15 3 8 1 15 -4 15 -6 0 -10
-7 -10 -15z"/>
<path d="M5920 4617 c0 -7 14 -12 30 -13 38 -1 38 1 0 15 -22 7 -30 7 -30 -2z"/>
<path d="M5695 4552 c-15 -11 -17 -34 -4 -43 7 -4 27 0 43 9 17 9 38 15 46 13
9 -1 5 5 -7 14 -17 12 -27 13 -42 5 -25 -13 -34 -13 -26 0 7 12 4 13 -10 2z
m60 -12 c-3 -5 -14 -10 -23 -10 -15 0 -15 2 -2 10 20 13 33 13 25 0z"/>
<path d="M6297 5083 c-4 -3 -7 -11 -7 -17 0 -6 5 -5 12 2 6 6 9 14 7 17 -3 3
-9 2 -12 -2z"/>
<path d="M6990 5070 c0 -5 5 -10 10 -10 6 0 10 5 10 10 0 6 -4 10 -10 10 -5 0
-10 -4 -10 -10z"/>
<path d="M7126 4995 c4 -8 12 -15 20 -15 20 0 17 7 -6 20 -16 9 -18 8 -14 -5z"/>
<path d="M7355 4800 c-3 -6 1 -7 9 -4 18 7 21 14 7 14 -6 0 -13 -4 -16 -10z"/>
<path d="M7340 4764 c0 -7 8 -10 20 -7 11 3 20 9 20 14 0 4 -9 7 -20 6 -11 -1
-20 -7 -20 -13z"/>
<path d="M7370 4718 c0 -20 -1 -20 -19 -4 -17 16 -19 16 -25 0 -4 -11 1 -24
14 -36 20 -19 21 -19 32 12 8 23 13 28 19 18 10 -15 12 -7 3 16 -9 23 -24 20
-24 -6z m-15 -19 c11 -17 -1 -21 -15 -4 -8 9 -8 15 -2 15 6 0 14 -5 17 -11z"/>
<path d="M7380 4673 c0 -8 5 -13 12 -11 18 6 21 25 3 25 -8 0 -15 -7 -15 -14z"/>
<path d="M7377 4639 c7 -7 15 -10 18 -7 3 3 -2 9 -12 12 -14 6 -15 5 -6 -5z"/>
<path d="M3855 5031 c-3 -5 -1 -12 4 -15 5 -3 11 1 15 9 6 16 -9 21 -19 6z"/>
<path d="M6560 4959 c0 -5 5 -7 10 -4 6 3 10 8 10 11 0 2 -4 4 -10 4 -5 0 -10
-5 -10 -11z"/>
<path d="M6814 4939 c-4 -8 0 -9 15 -4 22 7 30 -10 9 -18 -7 -3 -8 -6 -3 -6 6
0 17 4 25 9 13 9 13 11 0 20 -20 13 -37 13 -46 -1z"/>
<path d="M2813 4816 c3 -7 0 -19 -6 -25 -6 -6 -8 -11 -5 -11 13 0 38 32 33 41
-10 14 -28 10 -22 -5z"/>
<path d="M2770 4770 c0 -11 5 -20 10 -20 6 0 10 9 10 20 0 11 -4 20 -10 20 -5
0 -10 -9 -10 -20z"/>
<path d="M2835 4719 c-4 -6 -5 -12 -2 -15 2 -3 7 2 10 11 7 17 1 20 -8 4z"/>
<path d="M2908 4613 c7 -3 16 -2 19 1 4 3 -2 6 -13 5 -11 0 -14 -3 -6 -6z"/>
<path d="M3835 4901 c-4 -7 0 -8 11 -4 12 4 15 3 10 -5 -4 -7 -2 -10 7 -6 7 2
26 0 42 -6 17 -6 32 -7 37 -2 6 6 -7 12 -31 16 -21 3 -46 9 -54 12 -8 3 -18 1
-22 -5z"/>
<path d="M3977 4884 c-25 -13 -26 -17 -12 -30 17 -17 39 -9 31 12 -3 7 0 16 6
20 7 5 8 2 3 -6 -5 -9 -4 -11 3 -6 13 8 16 26 5 26 -5 -1 -20 -8 -36 -16z"/>
<path d="M3925 4839 c-4 -6 -5 -12 -2 -15 2 -3 7 2 10 11 7 17 1 20 -8 4z"/>
<path d="M3780 4780 c0 -5 4 -10 9 -10 6 0 13 5 16 10 3 6 -1 10 -9 10 -9 0
-16 -4 -16 -10z"/>
<path d="M3295 4812 c-5 -4 -11 -13 -13 -20 -2 -10 2 -10 17 -2 11 5 23 15 26
20 7 12 -15 13 -30 2z"/>
<path d="M4360 4760 c0 -5 6 -10 14 -10 8 0 18 5 21 10 3 6 -3 10 -14 10 -12
0 -21 -4 -21 -10z"/>
<path d="M6783 4802 c-9 -6 -7 -11 6 -19 15 -10 19 -9 17 2 -3 20 -10 25 -23
17z"/>
<path d="M6830 4780 c20 -13 33 -13 25 0 -3 6 -14 10 -23 10 -15 0 -15 -2 -2
-10z"/>
<path d="M6822 4766 c2 -1 10 -7 19 -14 13 -10 19 -10 27 0 8 10 3 13 -19 14
-16 1 -28 1 -27 0z"/>
<path d="M6976 4746 c7 -19 38 -22 32 -3 -3 6 -12 13 -21 15 -12 2 -15 -1 -11
-12z"/>
<path d="M6943 4713 c-27 -5 -53 -33 -31 -33 8 0 20 6 26 12 7 7 36 15 65 19
l52 6 -45 0 c-25 0 -55 -2 -67 -4z"/>
<path d="M6510 4810 c0 -5 5 -10 10 -10 6 0 10 5 10 10 0 6 -4 10 -10 10 -5 0
-10 -4 -10 -10z"/>
<path d="M3155 4719 c-4 -6 -4 -13 -1 -16 8 -8 36 5 36 17 0 13 -27 13 -35 -1z"/>
<path d="M3225 4691 c-6 -11 1 -15 42 -24 15 -3 20 -1 16 9 -3 8 -9 14 -13 14
-5 0 -15 3 -23 6 -8 3 -18 1 -22 -5z"/>
<path d="M2605 3715 c-14 -13 -25 -36 -25 -50 0 -31 41 -75 70 -75 29 0 70 44
70 75 0 31 -41 75 -70 75 -11 0 -32 -11 -45 -25z"/>
<path d="M7530 3733 c-56 -20 -68 -87 -23 -123 50 -39 112 -9 113 56 0 44 -50
81 -90 67z"/>
<path d="M2975 3560 c-118 -57 -176 -142 -183 -269 -3 -62 0 -87 18 -135 42
-110 153 -193 272 -204 56 -5 143 12 154 30 3 4 0 33 -7 63 -12 54 -13 55 -43
50 -17 -3 -44 -7 -61 -10 -45 -7 -110 29 -147 83 -75 108 -18 254 109 278 77
14 173 -44 195 -118 14 -48 23 -52 93 -43 54 6 55 7 55 40 0 50 -58 154 -107
191 -104 79 -241 96 -348 44z"/>
<path d="M6881 3536 l-23 -24 42 -244 c53 -312 68 -390 79 -401 12 -12 72 8
106 35 25 19 26 24 20 77 l-7 57 54 36 c29 20 76 52 104 72 l51 37 48 -25 48
-26 38 22 c22 12 47 33 56 47 24 37 35 29 -421 292 -66 38 -131 69 -146 69
-15 0 -36 -10 -49 -24z m235 -235 l76 -48 -58 -36 c-32 -20 -60 -34 -62 -32
-6 5 -40 165 -36 165 2 0 38 -22 80 -49z"/>
<path d="M3674 3109 c-65 -56 -174 -147 -241 -201 -68 -55 -123 -106 -123
-113 0 -13 100 -75 121 -75 6 0 27 14 46 30 18 17 39 30 46 30 7 -1 64 -25
127 -54 l115 -53 5 -58 c5 -61 5 -60 73 -90 76 -33 72 -48 69 305 -1 190 -7
326 -13 342 -6 14 -20 29 -32 32 -56 15 -73 7 -193 -95z m89 -235 l-8 -52 -62
30 c-35 16 -63 32 -63 36 0 4 31 31 68 60 l67 52 3 -37 c1 -21 -1 -61 -5 -89z"/>
<path d="M6303 3178 c-23 -12 -44 -27 -47 -35 -5 -12 14 -62 112 -298 27 -66
59 -150 71 -187 22 -67 37 -82 69 -71 64 22 354 161 369 176 13 13 11 21 -11
64 -14 28 -33 53 -42 57 -10 4 -59 -16 -130 -54 -63 -34 -118 -59 -123 -56 -5
3 -39 75 -75 158 -88 205 -118 263 -136 265 -8 1 -34 -8 -57 -19z"/>
<path d="M5995 3049 c-33 -10 -118 -33 -188 -50 -76 -19 -131 -38 -134 -46 -7
-17 106 -558 122 -583 5 -8 20 -10 44 -5 69 12 412 108 428 120 16 12 16 15 0
56 -30 76 -21 74 -158 34 -68 -20 -142 -37 -163 -38 -38 -2 -40 0 -49 36 -5
21 -7 40 -5 42 2 3 44 16 94 30 159 45 159 46 128 126 -19 47 -10 46 -162 6
-50 -14 -94 -21 -97 -17 -3 5 -8 29 -11 53 l-7 45 69 21 c38 11 96 27 129 36
101 26 98 24 91 57 -10 49 -37 98 -55 97 -9 0 -43 -9 -76 -20z"/>
<path d="M4226 3021 c-3 -5 -10 -37 -15 -72 -22 -145 -51 -329 -65 -411 -9
-48 -13 -94 -10 -101 7 -18 44 -35 94 -43 38 -6 39 -6 48 32 6 22 17 86 26
144 9 57 20 108 25 113 9 9 87 -77 228 -254 65 -82 92 -108 115 -113 60 -12
63 -4 77 181 7 92 17 226 22 298 9 118 8 131 -8 142 -18 14 -91 17 -110 5 -7
-4 -17 -68 -26 -160 -8 -84 -17 -156 -21 -160 -10 -9 -31 17 -166 208 -143
200 -142 200 -179 200 -16 0 -32 -4 -35 -9z"/>
<path d="M4998 2915 c-5 -5 -8 -142 -8 -306 0 -261 2 -298 16 -303 31 -12 226
-6 293 10 121 27 200 96 237 206 47 143 -41 311 -194 368 -44 17 -89 23 -197
27 -77 3 -143 2 -147 -2z m302 -167 c61 -32 83 -66 87 -135 3 -46 0 -65 -17
-91 -29 -46 -108 -81 -180 -79 l-55 2 -3 163 -2 162 63 0 c45 0 75 -6 107 -22z"/>
</g>
</svg>
